HIERARCHY
ROOT Hips
{
	OFFSET 0.00000 0.00000 0.00000
	CHANNELS 6 Xposition Yposition Zposition Zrotation Yrotation Xrotation 
	JOINT LHipJoint
	{
		OFFSET 0 0 0
		CHANNELS 3 Zrotation Yrotation Xrotation
		JOINT LeftHip
		{
			OFFSET 1.61328 -1.70571 0.84375
			CHANNELS 3 Zrotation Yrotation Xrotation
			JOINT LeftKnee
			{
				OFFSET 2.32400 -6.38513 0.00000
				CHANNELS 3 Zrotation Yrotation Xrotation
				JOINT LeftAnkle
				{
					OFFSET 2.58843 -7.11166 0.00000
					CHANNELS 3 Zrotation Yrotation Xrotation
					JOINT LeftToe
					{
						OFFSET 0.17200 -0.47257 2.47970
						CHANNELS 3 Zrotation Yrotation Xrotation
						End Site
						{
							OFFSET 0.00000 -0.00000 1.26912
						}
					}
				}
			}
		}
	}
	JOINT RHipJoint
	{
		OFFSET 0 0 0
		CHANNELS 3 Zrotation Yrotation Xrotation
		JOINT RightHip
		{
			OFFSET -1.49930 -1.70570 0.84375
			CHANNELS 3 Zrotation Yrotation Xrotation
			JOINT RightKnee
			{
				OFFSET -2.30458 -6.33178 0.00000
				CHANNELS 3 Zrotation Yrotation Xrotation
				JOINT RightAnkle
				{
					OFFSET -2.62261 -7.20556 0.00000
					CHANNELS 3 Zrotation Yrotation Xrotation
					JOINT RightToe
					{
						OFFSET -0.18709 -0.51403 2.51340
						CHANNELS 3 Zrotation Yrotation Xrotation
						End Site
						{
							OFFSET -0.00000 -0.00000 1.28858
						}
					}
				}
			}
		}
	}
	JOINT lowerback
	{
		OFFSET 0 0 0
		CHANNELS 3 Zrotation Yrotation Xrotation
		JOINT Chest
		{
			OFFSET -0.03798 2.19274 -0.19881
			CHANNELS 3 Zrotation Yrotation Xrotation
			JOINT Chest2
			{
				OFFSET -0.00024 2.19460 0.05248
				CHANNELS 3 Zrotation Yrotation Xrotation
				JOINT lowerneck
				{
					OFFSET 0 0 0
					CHANNELS 3 Zrotation Yrotation Xrotation
					JOINT Neck
					{
						OFFSET -0.00746 1.82323 0.17286
						CHANNELS 3 Zrotation Yrotation Xrotation
						JOINT Head
						{
							OFFSET 0.11826 1.82121 -0.27841
							CHANNELS 3 Zrotation Yrotation Xrotation
							End Site
							{
								OFFSET 0.03496 1.85543 -0.11495
							}
						}
					}
				}
				JOINT LeftCollar
				{
					OFFSET 0 0 0
					CHANNELS 3 Zrotation Yrotation Xrotation
					JOINT LeftShoulder
					{
						OFFSET 3.71926 0.78840 0.25473
CHANNELS 3 Zrotation Xrotation Yrotation
						JOINT LeftElbow
						{
OFFSET 0 -5.375870 0.000000
CHANNELS 3 Zrotation Xrotation Yrotation
							JOINT LeftWrist
							{
OFFSET 0 -3.359770 0.000000
CHANNELS 3 Zrotation Xrotation Yrotation
								JOINT lhand
								{
									OFFSET 0 0 0
CHANNELS 3 Zrotation Xrotation Yrotation
									JOINT LFingers
									{
OFFSET 0 -0.561860 0.000000
CHANNELS 3 Zrotation Xrotation Yrotation
										End Site
										{
OFFSET 0 -0.452990 0.000000
										}
									}
								}
								JOINT LThumb
								{
OFFSET 0 0.000000 0.000000
CHANNELS 3 Zrotation Xrotation Yrotation
									End Site
									{
OFFSET 0 -0.459900 0.459900
									}
								}
							}
						}
					}
				}
				JOINT RightCollar
				{
					OFFSET 0 0 0
					CHANNELS 3 Zrotation Yrotation Xrotation
					JOINT RightShoulder
					{
						OFFSET -3.65136 0.56074 0.01624
CHANNELS 3 Zrotation Xrotation Yrotation
						JOINT RightElbow
						{
OFFSET 0 -5.228190 0.000000
CHANNELS 3 Zrotation Xrotation Yrotation
							JOINT RightWrist
							{
OFFSET 0 -3.407640 0.000000
CHANNELS 3 Zrotation Xrotation Yrotation
								JOINT rhand
								{
									OFFSET 0 0 0
CHANNELS 3 Zrotation Xrotation Yrotation
									JOINT RFingers
									{
OFFSET 0 -0.583250 0.000000
CHANNELS 3 Zrotation Xrotation Yrotation
										End Site
										{
OFFSET 0 -0.470240 0.000000
										}
									}
								}
								JOINT RThumb
								{
OFFSET 0 0.000000 0.000000
CHANNELS 3 Zrotation Xrotation Yrotation
									End Site
									{
OFFSET 0 -0.477420 0.477420
									}
								}
							}
						}
					}
				}
			}
		}
	}
}
MOTION
Frames: 12
Frame Time: 0.008333333333333333
23.198589 16.305084 -4.502233 -188.872982 78.499611 -185.722563 0.000000 0.000000 0.000000 -21.082441 11.881167 -13.695896 3.152954 10.938395 32.072686 1.150859 -10.622100 -19.465234 0.349075 -3.795958 -10.503357 0.000000 0.000000 0.000000 13.058065 5.193944 -38.094151 -15.157402 -19.426859 75.709436 -0.401870 -0.372804 -12.109626 -0.382011 -3.966779 10.983492 -0.908841 -0.812612 6.868353 1.300502 -1.035596 2.880770 1.924332 -0.494366 -0.839239 -0.708232 -2.890063 -14.999696 5.797899 -4.937314 21.982262 1.524260 -1.568367 9.602995 0.000000 0.000000 0.000000 18.274987 5.626496 -62.277529 68.824234 -58.235993 41.769838 18.546014 -11.989186 -16.268624 0.000000 0.000000 0.000000 -7.125000 0.000000 0.000000 -8.782264 46.896768 0.414159 0.000000 0.000000 0.000000 -6.134233 21.050471 28.353069 -32.748913 -43.136194 -13.250115 -26.239715 -8.465472 -5.353139 0.000000 0.000000 0.000000 7.125000 0.000000 0.000000 0.335289 24.015877 0.169766
23.778851 16.336961 -4.592723 -186.018093 79.154118 -183.173583 0.000000 0.000000 0.000000 -20.128917 12.938579 -9.023566 2.481151 9.803082 28.341779 1.253348 -9.417861 -20.116276 0.374597 -3.931123 -10.882825 0.000000 0.000000 0.000000 12.519748 9.845487 -38.731876 -10.361830 -17.605215 60.686944 -0.781975 1.104406 -16.369789 -0.256306 -3.257227 8.995712 -0.926878 -0.994092 7.263149 1.451039 -1.279367 2.641839 2.118756 -0.613361 -1.290237 -0.974525 -2.715145 -15.235287 6.216603 -4.684164 19.917048 1.721846 -1.506769 8.937603 0.000000 0.000000 0.000000 16.099015 1.978005 -63.156881 70.651419 -58.536982 43.325936 20.918638 -12.211734 -14.817097 0.000000 0.000000 0.000000 -7.125000 0.000000 0.000000 -6.231265 45.698333 0.108138 0.000000 0.000000 0.000000 -6.914138 21.192108 28.604374 -32.735939 -43.126112 -13.241243 -26.148862 -8.729464 -5.456088 0.000000 0.000000 0.000000 7.125000 0.000000 0.000000 0.406074 23.905984 0.206646
24.448750 16.385357 -4.630932 -185.520194 78.523199 -181.733207 0.000000 0.000000 0.000000 -19.538038 13.743389 -4.634323 1.657588 8.112709 23.057222 1.143988 -8.628435 -19.173824 0.443434 -4.272623 -11.845038 0.000000 0.000000 0.000000 11.165611 12.712701 -38.934578 -6.128244 -14.550618 45.492592 -1.073802 1.668524 -19.100677 -0.098179 -2.019187 5.558662 -0.927173 -1.347027 7.022176 1.746827 -1.750069 2.240298 2.462086 -0.848448 -1.540450 -1.146067 -2.742934 -15.526051 6.623799 -4.665995 16.994627 1.863442 -1.569678 8.017971 0.000000 0.000000 0.000000 14.527588 0.193489 -65.041084 74.052004 -59.016700 46.234259 21.432660 -12.907292 -14.138908 0.000000 0.000000 0.000000 -7.125000 0.000000 0.000000 -5.617897 45.047852 0.007010 0.000000 0.000000 0.000000 -7.303856 21.891304 27.998589 -33.223025 -43.500752 -13.575328 -26.209816 -8.704003 -5.303530 0.000000 0.000000 0.000000 7.125000 0.000000 0.000000 0.356038 24.072579 0.179875
25.156472 16.365301 -4.612474 -188.580601 77.391416 -183.918741 0.000000 0.000000 0.000000 -19.273785 14.082442 -0.449598 1.115783 6.710436 18.860258 0.989430 -8.185903 -17.829039 0.532802 -4.677119 -12.990055 0.000000 0.000000 0.000000 9.341486 14.938861 -38.943396 -4.693462 -13.030028 39.481008 -1.333281 -1.563987 -22.432928 -0.060289 -1.584241 4.358075 -0.841963 -1.511192 7.332925 1.926502 -1.952339 2.215231 2.626359 -0.945240 -1.725080 -1.446891 -2.989428 -15.307340 7.094160 -4.779980 12.462801 2.036094 -1.745079 6.526826 0.000000 0.000000 0.000000 13.498966 -0.043231 -67.266396 76.455815 -59.295346 48.298151 19.133476 -12.825418 -16.363860 0.000000 0.000000 0.000000 -7.125000 0.000000 0.000000 -8.258035 47.074860 0.425635 0.000000 0.000000 0.000000 -7.364058 22.112532 27.412688 -33.004876 -43.333712 -13.425382 -26.009743 -8.489242 -5.084447 0.000000 0.000000 0.000000 7.125000 0.000000 0.000000 0.498597 24.325937 0.249002
25.911087 16.252132 -4.534667 -193.276875 75.617078 -187.655543 0.000000 0.000000 0.000000 -19.063572 13.196877 1.721427 1.103824 6.675433 18.757448 0.870179 -8.694715 -16.819156 0.819357 -5.775370 -16.134084 0.000000 0.000000 0.000000 8.352236 15.024183 -39.576746 -5.694553 -14.125467 43.742716 -1.163788 -3.002943 -21.663523 -0.234528 -3.113466 8.595162 -0.606740 -1.667086 7.782929 2.008798 -2.127125 2.355623 2.606546 -1.027123 -1.826319 -1.794637 -3.376193 -14.245049 7.464534 -4.909961 6.889426 2.211299 -1.960848 4.622867 0.000000 0.000000 0.000000 12.456750 0.809593 -68.873673 74.776010 -59.105749 46.855304 18.083844 -12.392231 -16.152496 0.000000 0.000000 0.000000 -7.125000 0.000000 0.000000 -9.181952 46.715520 0.391945 0.000000 0.000000 0.000000 -7.603097 21.672934 27.629047 -32.293682 -42.780003 -12.939818 -25.794134 -8.045032 -5.058013 0.000000 0.000000 0.000000 7.125000 0.000000 0.000000 0.658757 24.365416 0.328344
26.759914 16.239062 -4.441664 -197.517109 74.719180 -190.531778 0.000000 0.000000 0.000000 -18.950757 12.756608 4.893534 0.835933 5.832426 16.298953 0.650010 -6.953308 -14.450718 1.139324 -6.778444 -19.060570 0.000000 0.000000 0.000000 7.677037 16.178780 -39.573155 -6.410849 -14.814800 46.608780 -0.867306 -3.829924 -19.380029 -0.681577 -5.276867 14.700416 -0.098262 -1.729882 7.584016 2.101257 -2.169471 2.280370 2.414636 -1.047785 -1.807563 -1.842497 -3.476383 -12.411282 7.823204 -4.635608 1.158615 2.627531 -1.971931 2.844539 0.000000 0.000000 0.000000 11.114234 3.409157 -68.924412 69.124650 -58.286935 42.025451 18.290242 -12.441695 -16.233153 0.000000 0.000000 0.000000 -7.125000 0.000000 0.000000 -9.011339 46.825906 0.409256 0.000000 0.000000 0.000000 -7.982384 20.740010 28.021728 -31.331305 -42.007473 -12.290981 -25.882975 -7.710669 -5.149351 0.000000 0.000000 0.000000 7.125000 0.000000 0.000000 0.594941 24.259893 0.297953
27.642959 16.339055 -4.345296 -199.768551 73.616546 -191.731124 0.000000 0.000000 0.000000 -18.463155 11.917422 5.977261 0.936840 6.164560 17.262933 0.360944 -4.101746 -10.681030 0.951254 -6.210482 -17.396555 0.000000 0.000000 0.000000 8.349655 15.925157 -37.520193 -6.694053 -15.068727 47.707441 -1.112387 -3.282944 -21.355796 -1.030384 -6.456617 18.115229 0.417996 -2.003227 6.983871 2.435073 -2.495525 1.938920 2.482502 -1.211739 -1.820361 -1.591485 -3.397404 -10.992835 8.031983 -4.285030 -2.153217 2.671219 -1.871155 1.454181 0.000000 0.000000 0.000000 10.037202 6.378995 -68.938248 63.194520 -57.102105 37.011694 18.081076 -12.930501 -16.355031 0.000000 0.000000 0.000000 -7.125000 0.000000 0.000000 -9.238833 46.922857 0.442033 0.000000 0.000000 0.000000 -8.228164 20.419676 27.740287 -31.417219 -42.077603 -12.348513 -26.354489 -8.010477 -5.287029 0.000000 0.000000 0.000000 7.125000 0.000000 0.000000 0.247785 24.083590 0.125118
28.495606 16.483376 -4.233120 -201.082302 72.270701 -192.532172 0.000000 0.000000 0.000000 -17.849236 11.846874 3.357430 1.734463 8.287707 23.592537 0.207000 -2.210096 -8.110213 0.490699 -4.491076 -12.462552 0.000000 0.000000 0.000000 9.640797 15.110789 -33.892037 -6.515776 -14.910162 47.018199 -1.530798 -2.310174 -24.305219 -1.088310 -6.629970 18.623759 0.361426 -2.046130 6.335108 2.676652 -2.564617 1.489828 2.754036 -1.248281 -1.905867 -1.802334 -3.583110 -9.664909 9.296613 -4.283039 -4.471744 3.158855 -1.906241 0.517461 0.000000 0.000000 0.000000 10.163470 8.690630 -69.812159 59.687121 -56.225942 34.080878 17.478353 -13.010439 -16.210041 0.000000 0.000000 0.000000 -7.125000 0.000000 0.000000 -9.760042 46.694009 0.411880 0.000000 0.000000 0.000000 -8.026854 20.960876 27.489096 -31.597765 -42.224130 -12.469643 -26.494688 -8.243912 -5.412571 0.000000 0.000000 0.000000 7.125000 0.000000 0.000000 0.147664 23.936536 0.075100
29.280159 16.553157 -4.147418 -201.599287 71.068263 -193.221965 0.000000 0.000000 0.000000 -17.445398 12.340941 -0.376669 2.791139 10.348760 30.113985 0.306938 -4.272570 -9.868512 0.577148 -4.864815 -13.523379 0.000000 0.000000 0.000000 11.184664 13.609598 -30.467004 -6.448857 -14.849669 46.757779 -1.838385 -2.163197 -26.475559 -0.844190 -5.860449 16.380130 0.584045 -1.903913 6.050903 2.625208 -2.369342 1.250301 2.555848 -1.152896 -2.014262 -2.251637 -3.863430 -8.573484 10.196036 -4.334003 -6.920562 3.592839 -1.977138 -0.417451 0.000000 0.000000 0.000000 11.094983 10.642733 -69.468672 60.091722 -56.334318 34.417459 16.464214 -13.844223 -16.328051 0.000000 0.000000 0.000000 -7.125000 0.000000 0.000000 -10.732899 46.680038 0.450038 0.000000 0.000000 0.000000 -7.414059 21.128797 27.428552 -31.211271 -41.909239 -12.210707 -26.631996 -8.233755 -5.579075 0.000000 0.000000 0.000000 7.125000 0.000000 0.000000 0.051518 23.743445 0.026398
30.032354 16.554610 -4.089767 -201.212953 70.456391 -193.342913 0.000000 0.000000 0.000000 -17.395883 12.144309 -3.355527 3.361946 11.259035 33.158660 0.506596 -5.734595 -12.710597 0.782993 -5.649222 -15.770059 0.000000 0.000000 0.000000 12.869339 12.884493 -27.469851 -6.615206 -14.999158 47.403552 -2.236729 -1.258985 -28.767841 -0.905155 -6.062594 16.966110 0.914102 -1.520964 5.721823 2.525377 -1.851133 1.017804 2.222852 -0.898445 -2.104258 -2.571037 -4.195797 -8.134858 10.521282 -4.635367 -7.878787 3.781941 -2.141771 -0.765172 0.000000 0.000000 0.000000 11.463335 12.524295 -67.181902 59.061512 -56.054593 33.561383 17.468581 -12.997953 -16.204673 0.000000 0.000000 0.000000 -7.125000 0.000000 0.000000 -9.767558 46.687295 0.410534 0.000000 0.000000 0.000000 -6.961176 21.019232 27.753796 -30.590351 -41.394085 -11.797992 -26.549843 -8.068784 -5.622169 0.000000 0.000000 0.000000 7.125000 0.000000 0.000000 0.114016 23.699859 0.058528
30.719240 16.502481 -4.085310 -198.832402 69.588612 -191.804840 0.000000 0.000000 0.000000 -17.455403 10.012180 -6.496084 3.793088 11.879813 35.308090 0.745535 -6.577248 -15.415441 1.033079 -6.464810 -18.139306 0.000000 0.000000 0.000000 15.087859 10.713438 -24.477428 -6.766301 -15.131911 47.984710 -2.420615 -0.292328 -29.581716 -0.658665 -5.190904 14.453918 1.723027 -1.315426 5.314781 2.601311 -1.533057 0.796207 1.817034 -0.744607 -2.134376 -2.726288 -4.458369 -8.130317 10.550290 -4.982847 -7.790689 3.808495 -2.308268 -0.707140 0.000000 0.000000 0.000000 11.759578 14.151272 -64.957095 56.889262 -55.422364 31.765985 18.621148 -11.904901 -16.349537 0.000000 0.000000 0.000000 -7.125000 0.000000 0.000000 -8.733480 46.990271 0.432162 0.000000 0.000000 0.000000 -6.958691 20.738327 27.967231 -30.383572 -41.219938 -11.661524 -26.551035 -7.957733 -5.596071 0.000000 0.000000 0.000000 7.125000 0.000000 0.000000 0.112170 23.728929 0.057509
31.345293 16.541181 -4.114416 -196.778900 69.112000 -190.502957 0.000000 0.000000 0.000000 -18.240161 8.321430 -9.948089 3.888228 12.010154 35.767965 0.926402 -7.250260 -17.197642 1.333182 -7.311341 -20.641144 0.000000 0.000000 0.000000 16.617800 8.720632 -22.499503 -7.069047 -15.389719 49.134899 -2.238121 0.711311 -28.125914 -0.272770 -3.356652 9.273520 2.175811 -0.950056 4.902177 2.716941 -1.025654 0.533008 1.642041 -0.495141 -2.189822 -2.820288 -4.690624 -8.612791 10.553895 -5.369727 -6.947993 3.787902 -2.470473 -0.319552 0.000000 0.000000 0.000000 12.810754 15.732706 -64.067838 55.771955 -55.073752 30.847929 18.452367 -11.764429 -16.283555 0.000000 0.000000 0.000000 -7.125000 0.000000 0.000000 -8.873567 46.899509 0.419098 0.000000 0.000000 0.000000 -7.187246 20.446851 27.906606 -30.333698 -41.177673 -11.628724 -26.774044 -7.889197 -5.757765 0.000000 0.000000 0.000000 7.125000 0.000000 0.000000 -0.047081 23.536028 -0.024356
